<svg xmlns="http://www.w3.org/2000/svg" width="1440" height="900" viewBox="0 0 1440 900">
  <defs>
    <linearGradient id="bg" x1="0" y1="0" x2="1" y2="1">
      <stop offset="0%" stop-color="#130a2b"/>
      <stop offset="55%" stop-color="#1e2d5c"/>
      <stop offset="100%" stop-color="#0a1a1f"/>
    </linearGradient>
  </defs>
  <rect width="1440" height="900" fill="url(#bg)"/>
  <g opacity="0.35" fill="#b7f0ff">
    <circle cx="260" cy="220" r="10"/><circle cx="300" cy="250" r="8"/><circle cx="340" cy="230" r="7"/>
    <circle cx="1020" cy="330" r="9"/><circle cx="1060" cy="355" r="7"/><circle cx="1100" cy="340" r="8"/>
  </g>
  <path d="M220 500 C430 220, 1010 220, 1220 500" stroke="#ffd58f" stroke-width="4" fill="none" opacity="0.5"/>
  <path d="M260 560 C470 300, 970 300, 1180 560" stroke="#8be9ff" stroke-width="3" fill="none" opacity="0.55"/>
  <rect x="70" y="60" width="420" height="120" rx="16" fill="#111827" opacity="0.7"/>
  <text x="95" y="105" fill="#f9fafb" font-size="32" font-family="Segoe UI, Arial">Electric Sheep Cathedral</text>
  <text x="95" y="140" fill="#cbd5e1" font-size="18" font-family="Segoe UI, Arial">Gaze + Breath + Autonomous Flocks</text>
  <rect x="70" y="760" width="210" height="56" rx="12" fill="#f59e0b"/>
  <text x="120" y="796" fill="#111827" font-size="24" font-family="Segoe UI, Arial">Capture</text>
  <rect x="300" y="760" width="280" height="56" rx="12" fill="#0f172a" stroke="#38bdf8"/>
  <text x="330" y="796" fill="#e2e8f0" font-size="22" font-family="Segoe UI, Arial">Breath Input: Active</text>
</svg>